<?xml version="1.0" standalone="no"?>
<!DOCTYPE svg PUBLIC "-//W3C//DTD SVG 20010904//EN"
 "http://www.w3.org/TR/2001/REC-SVG-20010904/DTD/svg10.dtd">
<svg version="1.0" xmlns="http://www.w3.org/2000/svg"
 width="500.000000pt" height="500.000000pt" viewBox="0 0 500.000000 500.000000"
 preserveAspectRatio="xMidYMid meet">
<metadata>
Created by potrace 1.14, written by Peter Selinger 2001-2017
</metadata>
<g transform="translate(0.000000,500.000000) scale(0.100000,-0.100000)"
fill="#000000" stroke="none">
<path d="M2974 4328 c-39 -29 -106 -80 -150 -113 -113 -85 -236 -157 -420
-246 -94 -45 -169 -87 -178 -101 -22 -30 -20 -65 3 -78 32 -17 56 -12 102 23
24 18 78 52 119 76 237 138 381 233 495 326 28 22 71 54 98 70 51 32 66 58 47
80 -20 25 -42 17 -116 -37z"/>
<path d="M2185 4254 c-33 -30 -83 -71 -112 -90 -58 -38 -110 -89 -119 -117 -9
-28 22 -67 54 -67 22 0 53 26 159 137 73 76 133 145 133 154 0 20 -20 39 -39
39 -9 -1 -43 -26 -76 -56z"/>
<path d="M890 4230 c-25 -25 -25 -41 0 -73 11 -14 37 -59 57 -99 65 -133 125
-188 164 -152 26 23 24 44 -7 85 -14 19 -45 75 -69 126 -63 132 -98 160 -145
113z"/>
<path d="M697 4072 c-22 -25 -21 -35 6 -69 13 -15 54 -77 92 -138 37 -60 87
-140 110 -176 24 -36 52 -84 64 -107 25 -49 53 -67 80 -52 45 24 29 89 -47
189 -32 42 -201 298 -228 346 -15 27 -56 31 -77 7z"/>
<path d="M3305 4044 c-22 -8 -134 -46 -250 -84 -247 -80 -496 -177 -563 -218
-38 -23 -48 -35 -50 -60 -2 -24 2 -34 22 -47 33 -22 58 -13 171 55 174 105
281 148 715 288 50 16 55 20 55 47 0 26 -4 30 -30 32 -16 1 -48 -5 -70 -13z"/>
<path d="M1694 3666 c-49 -24 -105 -49 -125 -55 -46 -15 -138 -107 -175 -175
-24 -43 -29 -66 -32 -142 -3 -53 0 -106 7 -125 13 -40 160 -207 211 -241 46
-31 133 -68 159 -68 12 0 26 -11 35 -28 16 -30 86 -236 86 -252 0 -15 -28 -12
-58 7 -176 111 -360 237 -412 283 -36 31 -79 66 -96 78 l-32 22 -25 -34 c-29
-37 -28 -38 33 -79 14 -9 48 -35 75 -57 28 -22 97 -72 155 -112 129 -88 276
-203 283 -221 7 -19 97 -77 119 -77 24 0 23 -10 -5 -51 -13 -19 -55 -99 -95
-179 -53 -108 -99 -182 -181 -290 -59 -80 -126 -160 -147 -178 -104 -88 -179
-138 -284 -191 -63 -32 -124 -62 -135 -68 -63 -35 -176 -83 -216 -93 -57 -14
-469 -7 -554 9 -70 14 -101 9 -110 -20 -6 -16 -12 -19 -36 -14 -20 5 -38 1
-54 -9 -21 -14 -25 -24 -25 -66 0 -49 2 -53 73 -128 41 -42 117 -129 171 -192
76 -90 96 -119 91 -135 -29 -88 -11 -128 65 -144 31 -7 58 -8 68 -2 9 5 60 14
112 21 82 10 104 10 147 -3 43 -13 93 -14 334 -7 156 5 302 13 324 19 22 6 60
11 85 11 102 1 287 76 388 158 19 15 50 38 71 52 59 40 194 147 315 249 102
87 111 93 114 70 1 -13 10 -61 18 -107 9 -46 17 -142 17 -214 2 -129 2 -131
29 -151 32 -24 71 -17 93 17 14 20 14 34 6 83 -6 32 -13 152 -15 268 -2 116
-7 217 -11 226 -4 11 6 27 32 49 21 18 58 56 83 85 25 29 85 97 134 151 159
177 255 346 388 689 38 96 53 122 102 175 21 23 60 71 89 108 28 37 82 97 121
134 l71 68 7 -143 c5 -96 3 -173 -5 -237 -13 -99 -14 -202 -3 -1061 4 -308 2
-502 -4 -550 -6 -41 -14 -98 -19 -126 l-7 -53 61 0 61 0 12 143 c9 96 11 295
9 612 -7 810 22 1291 87 1460 8 22 16 49 17 60 1 11 5 2 10 -20 5 -22 9 -122
9 -223 1 -116 6 -202 15 -235 7 -29 16 -71 20 -95 4 -23 20 -76 36 -117 16
-42 33 -99 38 -128 5 -29 16 -81 24 -117 9 -36 30 -139 48 -230 17 -91 40
-196 49 -235 17 -65 51 -216 86 -380 9 -38 26 -115 39 -170 13 -55 27 -134 31
-175 9 -105 42 -148 93 -120 39 20 43 44 22 122 -28 103 -67 276 -86 388 -9
52 -28 133 -41 179 -13 46 -23 86 -20 88 9 10 301 5 376 -6 121 -19 138 -26
149 -70 14 -51 30 -124 31 -135 0 -5 -27 -6 -62 -2 -157 17 -229 26 -302 36
-67 8 -83 8 -103 -5 -30 -20 -31 -65 -2 -91 19 -17 44 -20 251 -25 126 -3 233
-10 237 -15 13 -16 30 -87 36 -154 3 -36 7 -81 9 -101 8 -85 66 -135 124 -105
47 24 57 75 23 118 -11 13 -27 62 -36 107 -17 82 -17 83 4 97 13 10 21 26 21
45 0 23 -7 32 -33 45 -31 15 -34 22 -65 137 -18 67 -35 133 -38 147 -3 14 -11
48 -19 75 -24 84 -45 183 -45 210 0 25 -12 84 -50 235 -10 41 -22 102 -25 135
-4 33 -9 68 -11 77 -3 10 3 19 16 23 44 14 34 76 -16 95 -23 9 -29 36 -41 188
-6 76 -4 84 15 103 12 11 22 28 22 39 0 22 -25 50 -45 50 -19 0 -32 48 -45
165 -10 96 -47 251 -68 291 -5 11 -18 50 -27 87 -16 66 -56 150 -98 212 -42
60 -113 137 -139 151 -56 29 -144 8 -193 -46 -11 -12 -36 -30 -55 -40 -41 -21
-73 -50 -116 -105 l-32 -39 -45 89 c-61 122 -110 176 -186 205 -57 21 -71 22
-303 18 l-243 -3 -62 -32 c-34 -18 -87 -42 -117 -53 -30 -12 -74 -34 -98 -50
-23 -17 -61 -35 -83 -41 -47 -12 -94 -42 -188 -116 -71 -57 -107 -112 -107
-162 0 -21 -14 -50 -44 -88 -24 -32 -50 -72 -59 -89 -9 -17 -36 -56 -61 -86
-25 -31 -55 -80 -66 -110 -32 -80 -140 -295 -155 -308 -10 -8 -23 21 -64 146
-28 86 -51 159 -51 164 0 4 25 10 56 13 93 10 183 67 269 172 45 55 65 120 65
214 0 75 -2 80 -42 140 -47 71 -173 192 -224 216 -21 10 -39 29 -48 49 -17 40
-67 66 -129 66 -32 0 -68 -12 -133 -44z m1820 -155 c12 -11 28 -38 35 -58 7
-21 26 -58 41 -83 15 -25 33 -63 40 -85 7 -22 21 -54 31 -71 25 -42 24 -56 -8
-86 -26 -24 -32 -25 -85 -18 -32 5 -88 22 -125 39 -51 23 -104 36 -208 51 -77
11 -165 27 -195 36 -30 9 -82 23 -115 31 -33 8 -75 21 -93 29 -18 8 -47 14
-64 14 l-31 0 24 26 c13 14 47 37 74 51 28 14 64 35 80 48 17 12 66 32 110 43
44 12 105 31 135 42 49 19 71 20 194 16 122 -4 141 -8 160 -25z m-1626 -12 c7
-11 21 -19 31 -19 26 0 161 -90 193 -129 33 -38 42 -80 36 -165 -4 -73 -33
-124 -83 -150 -16 -9 -46 -26 -65 -39 -31 -19 -48 -22 -140 -21 -96 0 -110 3
-171 32 -62 29 -159 117 -159 144 0 5 -11 24 -25 42 -46 61 -22 161 61 255 59
65 109 82 219 75 72 -5 92 -10 103 -25z m2269 -81 c30 -13 93 -67 93 -80 0 -4
11 -30 24 -57 13 -27 27 -62 30 -78 4 -15 14 -35 21 -43 7 -8 25 -64 40 -124
14 -61 33 -122 40 -137 11 -20 55 -203 55 -226 0 -12 -98 15 -278 74 -108 35
-209 63 -223 61 l-26 -4 -12 135 c-7 75 -16 143 -21 151 -4 8 -10 36 -14 61
-6 42 -3 50 36 110 30 45 56 70 85 85 24 12 60 36 80 53 45 36 36 34 70 19z
m-1311 -258 c47 -16 204 -38 228 -32 17 5 123 -20 231 -56 169 -55 216 -74
222 -89 8 -20 -102 -163 -124 -163 -21 0 -155 -180 -222 -299 -41 -73 -81
-171 -81 -200 0 -8 -18 -53 -39 -100 -22 -47 -46 -102 -55 -121 -8 -19 -35
-65 -58 -102 -24 -37 -66 -104 -95 -150 -28 -46 -109 -150 -179 -233 -126
-150 -310 -345 -324 -345 -5 0 -20 -14 -33 -30 -14 -16 -30 -30 -35 -30 -5 0
-26 -18 -46 -40 -20 -22 -40 -40 -45 -40 -5 0 -20 -13 -33 -28 -13 -15 -31
-31 -41 -35 -9 -3 -17 -11 -17 -17 0 -5 -7 -10 -15 -10 -9 0 -18 -7 -21 -15
-4 -8 -12 -15 -20 -15 -8 0 -19 -9 -26 -20 -7 -11 -18 -20 -25 -20 -7 0 -13
-4 -13 -10 0 -5 -11 -12 -25 -16 -14 -3 -34 -17 -44 -30 -10 -13 -24 -24 -30
-24 -6 0 -11 -4 -11 -9 0 -8 -135 -70 -188 -86 -12 -3 -96 -10 -185 -15 -89
-5 -182 -13 -207 -19 -69 -16 -458 -13 -575 4 -55 8 -123 15 -152 15 -50 0
-53 2 -83 45 -17 24 -47 64 -68 89 -87 104 -107 132 -143 201 -64 121 -55 132
104 121 327 -22 393 -19 524 24 252 83 359 139 518 272 128 106 183 160 215
208 16 25 42 59 57 75 56 60 155 206 170 251 15 45 63 141 88 177 11 16 15 11
39 -45 28 -66 71 -279 58 -288 -176 -140 -225 -176 -302 -221 -92 -53 -120
-77 -120 -106 0 -35 27 -63 60 -63 14 0 44 13 66 30 21 16 42 30 47 30 4 0 33
20 65 45 86 67 103 79 153 109 l46 26 7 -30 c3 -17 4 -70 1 -118 -3 -48 -7
-162 -10 -254 -4 -142 -3 -169 11 -182 20 -21 58 -20 79 1 15 14 16 31 10 126
-10 157 14 363 65 547 23 83 19 125 -13 166 -23 29 -57 93 -57 107 0 8 -42
121 -60 162 -16 36 -15 45 6 58 43 24 134 98 134 107 0 5 24 29 53 52 30 24
96 80 148 126 52 46 108 90 126 97 53 22 57 91 8 113 -37 17 -72 0 -140 -71
-78 -80 -150 -139 -203 -166 -24 -12 -51 -30 -62 -41 -10 -10 -31 -27 -46 -37
-26 -17 -28 -17 -21 0 3 9 25 44 47 77 22 32 40 63 40 69 0 5 15 32 32 58 18
26 47 74 64 105 41 78 130 181 179 207 22 12 61 37 88 56 26 18 71 41 100 49
28 9 58 20 66 25 22 14 79 11 137 -9z m1206 -504 c86 -25 350 -76 392 -76 22
0 25 -6 36 -67 6 -38 14 -90 17 -117 6 -48 6 -49 -18 -42 -101 31 -274 56
-385 56 -64 0 -85 -4 -95 -17 -12 -14 -15 -9 -20 43 -7 72 -27 202 -35 227 -7
23 8 22 108 -7z m112 -367 c123 10 132 9 233 -17 121 -30 117 -26 138 -162 7
-47 18 -114 25 -149 6 -35 10 -65 8 -66 -2 -1 -28 4 -58 12 -96 26 -249 54
-432 79 -31 4 -49 12 -53 23 -9 29 -27 154 -32 224 l-5 68 24 -11 c17 -8 60
-9 152 -1z m210 -443 c60 -9 119 -25 151 -40 28 -15 56 -26 61 -26 9 0 54
-206 54 -248 0 -27 -25 -28 -155 -6 -170 28 -295 38 -327 26 -22 -8 -30 -8
-33 1 -5 14 -65 273 -65 279 0 3 30 10 68 16 97 17 115 19 132 16 8 -2 59 -10
114 -18z"/>
<path d="M196 3598 c-10 -14 -12 -27 -6 -38 15 -28 78 -71 143 -96 72 -28 202
-102 337 -190 135 -88 176 -107 200 -94 56 30 41 91 -27 110 -40 11 -63 23
-306 159 -81 45 -162 87 -180 92 -18 5 -52 25 -74 44 -48 41 -66 43 -87 13z"/>
</g>
</svg>
